<?xml version="1.0" standalone="no"?>
<!DOCTYPE svg PUBLIC "-//W3C//DTD SVG 20010904//EN"
 "http://www.w3.org/TR/2001/REC-SVG-20010904/DTD/svg10.dtd">
<svg version="1.0" xmlns="http://www.w3.org/2000/svg"
 width="667.000000pt" height="612.000000pt" viewBox="0 0 667.000000 612.000000"
 preserveAspectRatio="xMidYMid meet">
<metadata>
Created by potrace 1.16, written by Peter Selinger 2001-2019
</metadata>
<g transform="translate(0.000000,612.000000) scale(0.100000,-0.100000)"
fill="#000000" stroke="none">
<path d="M1050 6086 c-140 -31 -288 -100 -392 -184 -129 -103 -238 -274 -295
-462 -27 -93 -28 -99 -28 -345 0 -203 3 -267 18 -340 141 -691 161 -810 172
-995 8 -134 -6 -224 -50 -318 -71 -151 -195 -240 -379 -270 l-96 -15 0 -107 0
-107 62 -6 c151 -14 287 -85 364 -189 131 -179 134 -371 13 -965 -102 -507
-109 -551 -108 -783 0 -230 18 -334 83 -475 124 -269 347 -446 641 -506 67
-14 134 -19 258 -19 l167 0 0 94 c0 90 -1 96 -26 115 -23 18 -41 21 -128 21
-224 1 -375 57 -502 185 -159 161 -221 385 -195 707 13 158 30 263 106 649
127 645 116 837 -61 1062 -67 86 -193 172 -309 211 -16 6 -8 12 38 31 203 82
354 255 403 460 13 56 15 101 11 225 -6 166 -23 279 -87 595 -135 668 -141
912 -29 1153 112 241 309 362 590 362 173 0 189 12 189 141 l0 89 -187 -1
c-107 -1 -212 -6 -243 -13z"/>
<path d="M5210 6012 c0 -82 2 -90 26 -113 24 -22 35 -24 173 -30 126 -4 158
-9 228 -33 199 -70 330 -215 399 -441 26 -84 28 -102 28 -280 0 -220 -7 -276
-95 -725 -75 -381 -87 -463 -95 -625 -5 -103 -3 -148 10 -214 45 -223 185
-388 404 -477 46 -18 53 -24 37 -30 -165 -56 -299 -168 -378 -314 -61 -112
-72 -165 -71 -340 0 -180 12 -266 94 -685 86 -443 94 -502 94 -715 0 -157 -3
-196 -22 -262 -64 -233 -213 -399 -416 -464 -66 -21 -107 -27 -225 -32 -134
-4 -146 -7 -168 -28 -21 -21 -23 -32 -23 -114 l0 -90 163 0 c187 0 257 10 382
51 126 42 225 101 321 192 196 185 293 432 294 749 0 178 -12 261 -104 723
-81 403 -88 451 -93 618 -7 190 2 247 49 341 37 74 115 157 184 196 53 31 185
70 236 70 l28 0 0 110 0 109 -37 6 c-164 27 -241 61 -323 144 -64 65 -103 133
-125 216 -18 70 -20 269 -5 395 11 82 74 425 104 560 118 527 115 838 -10
1107 -97 210 -263 368 -475 452 -124 49 -207 61 -409 61 l-180 0 0 -88z"/>
<path d="M2380 4616 c0 -8 78 -259 174 -558 95 -298 176 -553 180 -565 8 -25
86 -48 -652 193 -261 85 -478 154 -483 154 -5 0 -9 -400 -9 -971 0 -920 1
-970 18 -964 110 37 1128 363 1129 361 1 -1 -81 -258 -182 -571 -102 -314
-185 -573 -185 -577 0 -5 437 -8 971 -8 919 0 970 1 965 18 -3 9 -84 269 -181
576 -96 307 -174 560 -173 561 2 1 257 -80 568 -181 310 -101 568 -184 572
-184 5 0 8 437 8 970 0 661 -3 970 -10 970 -8 0 -920 -293 -1136 -365 -12 -4
-10 4 210 681 80 247 146 456 146 462 0 9 -225 12 -965 12 -821 0 -965 -2
-965 -14z"/>
</g>
</svg>
